solid Exported from Blender-2.93.1
facet normal 0.000000 0.076774 -0.997049
outer loop
vertex -0.250000 1.345290 -0.093451
vertex 0.250000 1.345290 -0.093451
vertex 0.250000 -0.687786 -0.250000
endloop
endfacet
facet normal 0.000000 0.076774 -0.997049
outer loop
vertex -0.250000 1.345290 -0.093451
vertex 0.250000 -0.687786 -0.250000
vertex -0.250000 -0.687786 -0.250000
endloop
endfacet
facet normal 0.000000 0.076774 0.997049
outer loop
vertex 0.250000 1.345290 0.093451
vertex -0.250000 1.345290 0.093451
vertex -0.250000 -0.687786 0.250000
endloop
endfacet
facet normal 0.000000 0.076774 0.997049
outer loop
vertex 0.250000 1.345290 0.093451
vertex -0.250000 -0.687786 0.250000
vertex 0.250000 -0.687786 0.250000
endloop
endfacet
facet normal -1.000000 0.000000 0.000000
outer loop
vertex -0.250000 -0.687786 -0.250000
vertex -0.250000 -0.687786 0.250000
vertex -0.250000 1.345290 0.093451
endloop
endfacet
facet normal -1.000000 0.000000 0.000000
outer loop
vertex -0.250000 -0.687786 -0.250000
vertex -0.250000 1.345290 0.093451
vertex -0.250000 1.345290 -0.093451
endloop
endfacet
facet normal 0.000000 -0.182706 -0.983168
outer loop
vertex -0.250000 -0.687786 -0.250000
vertex 0.250000 -0.687786 -0.250000
vertex 0.168803 -1.124718 -0.168803
endloop
endfacet
facet normal 0.000000 -0.182706 -0.983168
outer loop
vertex -0.250000 -0.687786 -0.250000
vertex 0.168803 -1.124718 -0.168803
vertex -0.168803 -1.124718 -0.168803
endloop
endfacet
facet normal 0.000000 1.000000 0.000000
outer loop
vertex -0.250000 1.345290 -0.093451
vertex -0.250000 1.345290 0.093451
vertex 0.250000 1.345290 0.093451
endloop
endfacet
facet normal 0.000000 1.000000 0.000000
outer loop
vertex -0.250000 1.345290 -0.093451
vertex 0.250000 1.345290 0.093451
vertex 0.250000 1.345290 -0.093451
endloop
endfacet
facet normal 0.000000 -0.409333 -0.912385
outer loop
vertex 0.116431 -1.241453 -0.116431
vertex -0.116431 -1.241453 -0.116431
vertex -0.168803 -1.124718 -0.168803
endloop
endfacet
facet normal 0.000000 -0.409334 -0.912384
outer loop
vertex 0.116431 -1.241453 -0.116431
vertex -0.168803 -1.124718 -0.168803
vertex 0.168803 -1.124718 -0.168803
endloop
endfacet
facet normal 0.983168 -0.182706 0.000000
outer loop
vertex 0.168803 -1.124718 0.168803
vertex 0.168803 -1.124718 -0.168803
vertex 0.250000 -0.687786 -0.250000
endloop
endfacet
facet normal 0.983168 -0.182706 0.000000
outer loop
vertex 0.168803 -1.124718 0.168803
vertex 0.250000 -0.687786 -0.250000
vertex 0.250000 -0.687786 0.250000
endloop
endfacet
facet normal -0.983168 -0.182706 0.000000
outer loop
vertex -0.168803 -1.124718 -0.168803
vertex -0.168803 -1.124718 0.168803
vertex -0.250000 -0.687786 0.250000
endloop
endfacet
facet normal -0.983168 -0.182706 0.000000
outer loop
vertex -0.168803 -1.124718 -0.168803
vertex -0.250000 -0.687786 0.250000
vertex -0.250000 -0.687786 -0.250000
endloop
endfacet
facet normal 1.000000 0.000000 0.000000
outer loop
vertex 0.250000 1.345290 -0.093451
vertex 0.250000 1.345290 0.093451
vertex 0.250000 -0.687786 0.250000
endloop
endfacet
facet normal 1.000000 0.000000 0.000000
outer loop
vertex 0.250000 1.345290 -0.093451
vertex 0.250000 -0.687786 0.250000
vertex 0.250000 -0.687786 -0.250000
endloop
endfacet
facet normal 0.000000 -1.000000 0.000000
outer loop
vertex 0.019422 -1.345290 -0.019422
vertex 0.019422 -1.345290 0.019422
vertex -0.019422 -1.345290 0.019422
endloop
endfacet
facet normal 0.000000 -1.000000 0.000002
outer loop
vertex 0.019422 -1.345290 -0.019422
vertex -0.019422 -1.345290 0.019422
vertex -0.019422 -1.345290 -0.019422
endloop
endfacet
facet normal 0.912385 -0.409334 0.000000
outer loop
vertex 0.116431 -1.241453 0.116431
vertex 0.116431 -1.241453 -0.116431
vertex 0.168803 -1.124718 -0.168803
endloop
endfacet
facet normal 0.912385 -0.409334 0.000000
outer loop
vertex 0.116431 -1.241453 0.116431
vertex 0.168803 -1.124718 -0.168803
vertex 0.168803 -1.124718 0.168803
endloop
endfacet
facet normal -0.912385 -0.409334 0.000000
outer loop
vertex -0.116431 -1.241453 -0.116431
vertex -0.116431 -1.241453 0.116431
vertex -0.168803 -1.124718 0.168803
endloop
endfacet
facet normal -0.912385 -0.409334 0.000000
outer loop
vertex -0.116431 -1.241453 -0.116431
vertex -0.168803 -1.124718 0.168803
vertex -0.168803 -1.124718 -0.168803
endloop
endfacet
facet normal 0.000000 -0.182706 0.983168
outer loop
vertex 0.250000 -0.687786 0.250000
vertex -0.250000 -0.687786 0.250000
vertex -0.168803 -1.124718 0.168803
endloop
endfacet
facet normal 0.000000 -0.182706 0.983168
outer loop
vertex 0.250000 -0.687786 0.250000
vertex -0.168803 -1.124718 0.168803
vertex 0.168803 -1.124718 0.168803
endloop
endfacet
facet normal -0.730722 -0.682675 0.000005
outer loop
vertex -0.019422 -1.345290 -0.019422
vertex -0.019422 -1.345290 0.019422
vertex -0.116431 -1.241453 0.116431
endloop
endfacet
facet normal -0.730722 -0.682676 0.000000
outer loop
vertex -0.019422 -1.345290 -0.019422
vertex -0.116431 -1.241453 0.116431
vertex -0.116431 -1.241453 -0.116431
endloop
endfacet
facet normal 0.730722 -0.682675 -0.000005
outer loop
vertex 0.019422 -1.345290 0.019422
vertex 0.019422 -1.345290 -0.019422
vertex 0.116431 -1.241453 -0.116431
endloop
endfacet
facet normal 0.730722 -0.682676 0.000000
outer loop
vertex 0.019422 -1.345290 0.019422
vertex 0.116431 -1.241453 -0.116431
vertex 0.116431 -1.241453 0.116431
endloop
endfacet
facet normal -0.000000 -0.682674 0.730723
outer loop
vertex -0.019422 -1.345290 0.019422
vertex 0.019422 -1.345290 0.019422
vertex 0.116431 -1.241453 0.116431
endloop
endfacet
facet normal 0.000000 -0.682676 0.730722
outer loop
vertex -0.019422 -1.345290 0.019422
vertex 0.116431 -1.241453 0.116431
vertex -0.116431 -1.241453 0.116431
endloop
endfacet
facet normal 0.000000 -0.682674 -0.730723
outer loop
vertex 0.019422 -1.345290 -0.019422
vertex -0.019422 -1.345290 -0.019422
vertex -0.116431 -1.241453 -0.116431
endloop
endfacet
facet normal 0.000000 -0.682676 -0.730722
outer loop
vertex 0.019422 -1.345290 -0.019422
vertex -0.116431 -1.241453 -0.116431
vertex 0.116431 -1.241453 -0.116431
endloop
endfacet
facet normal 0.000000 -0.409333 0.912385
outer loop
vertex -0.116431 -1.241453 0.116431
vertex 0.116431 -1.241453 0.116431
vertex 0.168803 -1.124718 0.168803
endloop
endfacet
facet normal 0.000000 -0.409334 0.912384
outer loop
vertex -0.116431 -1.241453 0.116431
vertex 0.168803 -1.124718 0.168803
vertex -0.168803 -1.124718 0.168803
endloop
endfacet
endsolid Exported from Blender-2.93.1
